# This file uses centimeters as units for non-parametric coordinates.

mtllib earth.mtl
g default
v -4.538366 0.105346 0.672106
v -3.511102 0.105346 0.950740
v -2.483838 0.105346 0.672106
v -2.607543 2.043926 -0.336134
v -4.332510 1.946572 -0.562807
v -3.511102 2.043926 -0.736965
v -2.689694 1.946572 -0.562807
v -4.616125 0.527600 -0.728165
v -3.511102 0.527600 -1.030039
v -2.406079 0.527600 -0.728165
v -4.538366 0.105346 -0.672106
v -3.511102 0.105346 -0.950740
v -2.483838 0.105346 -0.672106
v -3.511102 -0.168410 -0.288533
v -3.898288 -0.168409 -0.265712
v -3.123917 -0.168409 -0.265712
v -3.511102 -0.168410 0.288533
v -2.337086 0.105346 -0.362576
v -2.248219 0.527600 -0.392818
v -2.337086 0.105346 0.362576
v -2.248219 0.527600 0.392818
v -4.685118 0.105346 -0.362576
v -4.773986 0.527600 -0.392818
v -4.685118 0.105346 0.362576
v -4.773986 0.527600 0.392818
v -4.414661 2.043926 -0.336134
v -4.098110 0.105346 0.875544
v -3.511102 0.527600 1.030039
v -4.142544 0.527600 0.948571
v -4.616125 0.527600 0.728165
v -2.924094 0.105346 0.875544
v -2.406079 0.527600 0.728165
v -2.879661 0.527600 0.948571
v -3.511102 2.043926 0.736965
v -4.025467 2.043926 0.678677
v -4.332510 1.946572 0.562807
v -2.689694 1.946572 0.562807
v -2.996737 2.043926 0.678677
v -4.414661 2.043926 0.336134
v -2.607543 2.043926 0.336134
v -4.025467 2.043926 -0.678677
v -2.996737 2.043926 -0.678677
v -4.142544 0.527600 -0.948571
v -2.879661 0.527600 -0.948571
v -4.098110 0.105346 -0.875544
v -2.924094 0.105346 -0.875544
v -3.898288 -0.168409 0.265712
v -3.123917 -0.168409 0.265712
v -4.080785 2.158889 0.797122
v -4.420851 2.047094 0.661030
v -4.511837 2.158889 0.394797
v -3.511102 2.158889 0.865582
v -4.511837 2.158889 -0.394797
v -2.941419 2.158889 0.797122
v -2.601353 2.047094 0.661030
v -2.510367 2.158889 0.394797
v -2.510367 2.158889 -0.394797
v -3.511102 2.158889 -0.865582
v -4.080785 2.158889 -0.797122
v -4.420851 2.047094 -0.661030
v -2.601353 2.047094 -0.661030
v -2.941419 2.158889 -0.797122
v -4.045264 2.211774 0.644464
v -4.364126 2.160311 0.534435
v -4.449439 2.211774 0.319189
v -3.511102 2.211774 0.699814
v -4.449439 2.211774 -0.319189
v -2.976941 2.211774 0.644464
v -2.658079 2.160311 0.534435
v -2.572767 2.211774 0.319189
v -2.572767 2.211774 -0.319189
v -3.511102 2.211774 -0.699814
v -4.045264 2.211774 -0.644464
v -4.364126 2.160311 -0.534435
v -2.658079 2.160311 -0.534435
v -2.976941 2.211774 -0.644464
v -3.948344 2.214553 0.527532
v -4.209352 2.126804 0.437467
v -4.279185 2.214553 0.261275
v -3.511102 2.214553 0.572839
v -4.279185 2.214553 -0.261275
v -3.073860 2.214553 0.527532
v -2.812852 2.126804 0.437467
v -2.743019 2.214553 0.261275
v -2.743019 2.214553 -0.261275
v -3.511102 2.214553 -0.572839
v -3.948344 2.214553 -0.527532
v -4.209352 2.126804 -0.437467
v -2.812852 2.126804 -0.437467
v -3.073860 2.214553 -0.527532
v -3.948344 2.068666 0.527532
v -4.209352 1.973837 0.437467
v -3.936713 2.333206 0.292316
v -4.279185 2.042551 0.261275
v -3.511102 2.068666 0.572839
v -3.511102 2.333206 0.317422
v -3.511102 2.333206 -0.317422
v -3.936713 2.333206 -0.292316
v -4.279185 2.042551 -0.261275
v -3.073860 2.068666 0.527532
v -3.085492 2.264399 0.292316
v -2.812852 2.039956 0.437467
v -2.743019 2.108670 0.261275
v -2.743019 2.108670 -0.261275
v -3.085492 2.264399 -0.292316
v -3.452376 1.888558 -0.572839
v -3.889618 1.888558 -0.527532
v -4.150625 1.793729 -0.437467
v -2.754126 1.859848 -0.437467
v -3.015133 1.888558 -0.527532
vt 0.091554 0.172772
vt 0.061799 0.172772
vt 0.051118 0.226163
vt 0.083355 0.226163
vt 0.050801 0.172772
vt 0.039203 0.226163
vt 0.061799 0.172772
vt 0.051118 0.226163
vt 0.091554 0.172772
vt 0.083355 0.226163
vt 0.090594 0.417892
vt 0.107541 0.405583
vt 0.082068 0.417892
vt 0.090594 0.417892
vt 0.107541 0.405583
vt 0.289122 0.417892
vt 0.297647 0.417892
vt 0.340513 0.226163
vt 0.328597 0.226163
vt 0.272175 0.405583
vt 0.296360 0.226163
vt 0.289122 0.417892
vt 0.272175 0.405583
vt 0.296360 0.226163
vt 0.328597 0.226163
vt 0.328915 0.172772
vt 0.317916 0.172772
vt 0.288161 0.172772
vt 0.288161 0.172772
vt 0.317916 0.172772
vt 0.228721 0.138157
vt 0.242889 0.172772
vt 0.232059 0.138157
vt 0.228721 0.138157
vt 0.242889 0.172772
vt 0.150994 0.138157
vt 0.136827 0.172772
vt 0.086494 0.767560
vt 0.148081 0.761720
vt 0.148081 0.909386
vt 0.086494 0.903546
vt 0.084811 0.712848
vt 0.148081 0.702309
vt 0.209667 0.767560
vt 0.209667 0.903546
vt 0.156578 0.968796
vt 0.093309 0.958258
vt 0.036938 0.774780
vt 0.036938 0.896326
vt 0.211350 0.712848
vt 0.047043 0.733797
vt 0.259223 0.774780
vt 0.259223 0.896326
vt 0.219848 0.958258
vt 0.055541 0.937308
vt 0.249118 0.733797
vt 0.257616 0.937308
vt 0.147657 0.138157
vt 0.150994 0.138157
vt 0.136827 0.172772
vt 0.247312 0.226163
vt 0.132404 0.226163
vt 0.239021 0.417892
vt 0.140694 0.417892
vt 0.247312 0.226163
vt 0.132404 0.226163
vt 0.239021 0.417892
vt 0.140694 0.417892
vt 0.073270 0.432429
vt 0.093175 0.418293
vt 0.132114 0.432429
vt 0.063256 0.432429
vt 0.247601 0.432429
vt 0.073270 0.432429
vt 0.093175 0.418293
vt 0.132114 0.432429
vt 0.247601 0.432429
vt 0.306446 0.432429
vt 0.316459 0.432429
vt 0.286541 0.418293
vt 0.286541 0.418293
vt 0.306446 0.432429
vt 0.095597 0.439116
vt 0.111690 0.432609
vt 0.143173 0.439116
vt 0.087502 0.439116
vt 0.236543 0.439116
vt 0.095597 0.439116
vt 0.111690 0.432609
vt 0.143173 0.439116
vt 0.236543 0.439116
vt 0.284118 0.439116
vt 0.292214 0.439116
vt 0.268025 0.432609
vt 0.268025 0.432609
vt 0.284118 0.439116
vt 0.112700 0.439467
vt 0.125873 0.428372
vt 0.151643 0.439467
vt 0.106073 0.439467
vt 0.228072 0.439467
vt 0.112700 0.439467
vt 0.125873 0.428372
vt 0.151643 0.439467
vt 0.228072 0.439467
vt 0.267015 0.439467
vt 0.273642 0.439467
vt 0.253842 0.428372
vt 0.253842 0.428372
vt 0.267015 0.439467
vt 0.112700 0.421021
vt 0.125873 0.409030
vt 0.151643 0.417719
vt 0.106073 0.421021
vt 0.228072 0.417719
vt 0.112700 0.421021
vt 0.125873 0.417390
vt 0.151643 0.426079
vt 0.228072 0.426079
vt 0.267015 0.398247
vt 0.273642 0.398247
vt 0.253842 0.386257
vt 0.253842 0.394617
vt 0.267015 0.398247
vn -0.469638 -0.708918 0.526190
vn -0.208817 -0.667910 0.714347
vn -0.245117 0.099301 0.964395
vn -0.648782 0.107433 0.753353
vn -0.000000 -0.646845 0.762622
vn -0.000000 0.103474 0.994632
vn 0.208817 -0.667910 0.714347
vn 0.245117 0.099301 0.964395
vn 0.469638 -0.708918 0.526190
vn 0.648782 0.107433 0.753353
vn -0.224159 0.094778 0.969933
vn -0.663642 0.147851 0.733294
vn -0.000000 0.098175 0.995169
vn 0.224159 0.094778 0.969933
vn 0.663642 0.147851 0.733294
vn -0.345496 0.861008 0.373227
vn -0.172803 0.924968 0.338488
vn -0.304234 0.922389 0.237994
vn -0.342174 0.929561 0.137236
vn 0.032197 0.944653 0.326487
vn 0.062395 0.953304 0.295497
vn 0.054114 0.883101 -0.466053
vn -0.308999 0.865847 -0.393483
vn -0.275634 0.902592 -0.330688
vn 0.123809 0.958144 0.258130
vn 0.254690 0.942660 0.215698
vn 0.157677 0.942798 0.293719
vn 0.158581 0.981400 0.108198
vn 0.112191 0.950328 -0.290326
vn 0.256468 0.887541 -0.382746
vn 0.028238 0.963400 -0.266576
vn -0.125620 0.927770 -0.351372
vn -0.255443 0.766856 -0.588796
vn 0.068080 0.849135 -0.523770
vn 0.077808 0.960973 -0.265475
vn -0.224159 0.094778 -0.969933
vn -0.000000 0.098175 -0.995169
vn -0.000000 0.103474 -0.994632
vn -0.245117 0.099301 -0.964395
vn -0.663642 0.147851 -0.733294
vn -0.648782 0.107433 -0.753353
vn 0.224159 0.094778 -0.969933
vn 0.663642 0.147851 -0.733294
vn 0.648782 0.107433 -0.753353
vn 0.245117 0.099301 -0.964395
vn -0.000000 -0.646845 -0.762622
vn -0.208817 -0.667910 -0.714347
vn -0.469639 -0.708918 -0.526190
vn 0.469638 -0.708918 -0.526190
vn 0.208817 -0.667910 -0.714347
vn -0.189085 -0.970912 -0.146888
vn -0.644752 -0.753459 -0.128823
vn -0.000000 -0.966898 -0.255162
vn 0.189085 -0.970912 -0.146888
vn 0.644752 -0.753458 -0.128823
vn -0.189085 -0.970912 0.146888
vn -0.644752 -0.753459 0.128823
vn -0.000000 -0.966898 0.255162
vn 0.189085 -0.970912 0.146888
vn 0.644752 -0.753458 0.128823
vn 0.982192 0.133203 -0.132496
vn 0.982192 0.133203 0.132496
vn 0.984974 0.142969 -0.096879
vn 0.984974 0.142969 0.096879
vn -0.982192 0.133203 -0.132497
vn -0.982192 0.133203 0.132497
vn -0.984974 0.142970 -0.096879
vn -0.984974 0.142970 0.096879
vn -0.197147 0.227491 0.953614
vn -0.564262 -0.057123 0.823617
vn -0.969031 -0.200780 0.143756
vn -0.000000 0.203792 0.979014
vn -0.969031 -0.200780 -0.143756
vn 0.197148 0.227491 0.953614
vn 0.564262 -0.057122 0.823618
vn 0.969033 -0.200772 0.143756
vn 0.969033 -0.200772 -0.143757
vn -0.197148 0.227491 -0.953614
vn 0.000000 0.203792 -0.979014
vn -0.564262 -0.057123 -0.823617
vn 0.564262 -0.057122 -0.823618
vn 0.197148 0.227492 -0.953614
vn -0.141237 0.973105 0.181987
vn -0.243315 0.940679 0.236475
vn -0.284946 0.954722 0.085506
vn 0.000000 0.977083 0.212858
vn -0.284946 0.954722 -0.085506
vn 0.141237 0.973105 0.181986
vn 0.243315 0.940679 0.236475
vn 0.284943 0.954723 0.085505
vn 0.284943 0.954723 -0.085505
vn -0.141237 0.973105 -0.181987
vn 0.000000 0.977083 -0.212858
vn -0.243315 0.940679 -0.236475
vn 0.243315 0.940679 -0.236474
vn 0.141237 0.973105 -0.181986
vn 0.071469 0.737866 -0.671153
vn 0.421476 0.769625 -0.479620
vn 0.588971 0.808146 -0.003677
vn 0.000000 0.738102 -0.674689
vn 0.618508 0.784899 0.037152
vn -0.058006 0.760706 -0.646499
vn -0.319629 0.859429 -0.399023
vn -0.415658 0.909363 0.016951
vn -0.482639 0.875771 0.009235
vn 0.132771 0.487058 0.863218
vn 0.010542 0.436574 0.899607
vn 0.474726 0.582508 0.659788
vn -0.476296 0.533285 0.699106
vn -0.117171 0.443049 0.888808
s 1
g pCube3
usemtl initialShadingGroup
f 1/1/1 27/2/2 29/3/3 30/4/4
f 27/2/2 2/5/5 28/6/6 29/3/3
f 2/5/5 31/7/7 33/8/8 28/6/6
f 31/7/7 3/9/9 32/10/10 33/8/8
f 30/4/4 29/3/3 35/11/11 36/12/12
f 29/3/3 28/6/6 34/13/13 35/11/11
f 28/6/6 33/8/8 38/14/14 34/13/13
f 33/8/8 32/10/10 37/15/15 38/14/14
f 92/51/16 91/42/17 93/38/18 94/48/19
f 91/42/17 95/43/20 96/39/21 93/38/18
f 93/38/18 96/39/21 97/40/22 98/41/23
f 94/48/19 93/38/18 98/41/23 99/49/24
f 95/43/20 100/50/25 101/44/26 96/39/21
f 100/50/25 102/56/27 103/52/28 101/44/26
f 101/44/26 103/52/28 104/53/29 105/45/30
f 96/39/21 101/44/26 105/45/30 97/40/22
f 98/41/23 97/40/22 106/46/31 107/47/32
f 99/49/24 98/41/23 107/47/32 108/55/33
f 105/45/30 104/53/29 109/57/34 110/54/35
f 97/40/22 105/45/30 110/54/35 106/46/31
f 41/16/36 6/17/37 9/18/38 43/19/39
f 5/20/40 41/16/36 43/19/39 8/21/41
f 42/22/42 7/23/43 10/24/44 44/25/45
f 6/17/37 42/22/42 44/25/45 9/18/38
f 43/19/39 9/18/38 12/26/46 45/27/47
f 8/21/41 43/19/39 45/27/47 11/28/48
f 44/25/45 10/24/44 13/29/49 46/30/50
f 9/18/38 44/25/45 46/30/50 12/26/46
f 11/28/48 45/27/47 15/31/51 22/32/52
f 45/27/47 12/26/46 14/33/53 15/31/51
f 12/26/46 46/30/50 16/34/54 14/33/53
f 46/30/50 13/29/49 18/35/55 16/34/54
f 22/32/52 15/31/51 47/36/56 24/37/57
f 15/31/51 14/33/53 17/58/58 47/36/56
f 47/36/56 17/58/58 2/5/5 27/2/2
f 24/37/57 47/36/56 27/2/2 1/1/1
f 14/33/53 16/34/54 48/59/59 17/58/58
f 16/34/54 18/35/55 20/60/60 48/59/59
f 48/59/59 20/60/60 3/9/9 31/7/7
f 17/58/58 48/59/59 31/7/7 2/5/5
f 18/35/55 13/29/49 10/24/44 19/61/61
f 3/9/9 20/60/60 21/62/62 32/10/10
f 20/60/60 18/35/55 19/61/61 21/62/62
f 19/61/61 10/24/44 7/23/43 4/63/63
f 32/10/10 21/62/62 40/64/64 37/15/15
f 21/62/62 19/61/61 4/63/63 40/64/64
f 11/28/48 22/32/52 23/65/65 8/21/41
f 22/32/52 24/37/57 25/66/66 23/65/65
f 24/37/57 1/1/1 30/4/4 25/66/66
f 8/21/41 23/65/65 26/67/67 5/20/40
f 23/65/65 25/66/66 39/68/68 26/67/67
f 25/66/66 30/4/4 36/12/12 39/68/68
f 36/12/12 35/11/11 49/69/69 50/70/70
f 39/68/68 36/12/12 50/70/70 51/71/71
f 35/11/11 34/13/13 52/72/72 49/69/69
f 26/67/67 39/68/68 51/71/71 53/73/73
f 34/13/13 38/14/14 54/74/74 52/72/72
f 38/14/14 37/15/15 55/75/75 54/74/74
f 37/15/15 40/64/64 56/76/76 55/75/75
f 40/64/64 4/63/63 57/77/77 56/76/76
f 6/17/37 41/16/36 59/78/78 58/79/79
f 41/16/36 5/20/40 60/80/80 59/78/78
f 5/20/40 26/67/67 53/73/73 60/80/80
f 4/63/63 7/23/43 61/81/81 57/77/77
f 7/23/43 42/22/42 62/82/82 61/81/81
f 42/22/42 6/17/37 58/79/79 62/82/82
f 50/70/70 49/69/69 63/83/83 64/84/84
f 51/71/71 50/70/70 64/84/84 65/85/85
f 49/69/69 52/72/72 66/86/86 63/83/83
f 53/73/73 51/71/71 65/85/85 67/87/87
f 52/72/72 54/74/74 68/88/88 66/86/86
f 54/74/74 55/75/75 69/89/89 68/88/88
f 55/75/75 56/76/76 70/90/90 69/89/89
f 56/76/76 57/77/77 71/91/91 70/90/90
f 58/79/79 59/78/78 73/92/92 72/93/93
f 59/78/78 60/80/80 74/94/94 73/92/92
f 60/80/80 53/73/73 67/87/87 74/94/94
f 57/77/77 61/81/81 75/95/95 71/91/91
f 61/81/81 62/82/82 76/96/96 75/95/95
f 62/82/82 58/79/79 72/93/93 76/96/96
f 64/84/84 63/83/83 77/97/97 78/98/98
f 65/85/85 64/84/84 78/98/98 79/99/99
f 63/83/83 66/86/86 80/100/100 77/97/97
f 67/87/87 65/85/85 79/99/99 81/101/101
f 66/86/86 68/88/88 82/102/102 80/100/100
f 68/88/88 69/89/89 83/103/103 82/102/102
f 69/89/89 70/90/90 84/104/104 83/103/103
f 70/90/90 71/91/91 85/105/105 84/104/104
f 72/93/93 73/92/92 87/106/106 86/107/107
f 73/92/92 74/94/94 88/108/108 87/106/106
f 74/94/94 67/87/87 81/101/101 88/108/108
f 71/91/91 75/95/95 89/109/109 85/105/105
f 75/95/95 76/96/96 90/110/110 89/109/109
f 76/96/96 72/93/93 86/107/107 90/110/110
f 78/98/98 77/97/97 91/111/17 92/112/16
f 79/99/99 78/98/98 92/112/16 94/113/19
f 77/97/97 80/100/100 95/114/20 91/111/17
f 81/101/101 79/99/99 94/113/19 99/115/24
f 80/100/100 82/102/102 100/116/25 95/114/20
f 82/102/102 83/103/103 102/117/27 100/116/25
f 83/103/103 84/104/104 103/118/28 102/117/27
f 84/104/104 85/105/105 104/119/29 103/118/28
f 86/107/107 87/106/106 107/120/32 106/121/31
f 87/106/106 88/108/108 108/122/33 107/120/32
f 88/108/108 81/101/101 99/115/24 108/122/33
f 85/105/105 89/109/109 109/123/34 104/119/29
f 89/109/109 90/110/110 110/124/35 109/123/34
f 90/110/110 86/107/107 106/121/31 110/124/35
