# This file uses centimeters as units for non-parametric coordinates.

mtllib sand.mtl
g default
v -7.250467 0.105346 0.672106
v -6.223203 0.105346 0.950740
v -5.195939 0.105346 0.672106
v -5.319644 2.043926 -0.336134
v -7.044610 1.946572 -0.562807
v -6.223203 2.043926 -0.736965
v -5.401795 1.946572 -0.562807
v -7.328226 0.527600 -0.728165
v -6.223203 0.527600 -1.030039
v -5.118180 0.527600 -0.728165
v -7.250467 0.105346 -0.672106
v -6.223203 0.105346 -0.950740
v -5.195939 0.105346 -0.672106
v -6.223203 -0.168410 -0.288533
v -6.610389 -0.168409 -0.265712
v -5.836018 -0.168409 -0.265712
v -6.223203 -0.168410 0.288533
v -5.049187 0.105346 -0.362576
v -4.960320 0.527600 -0.392818
v -5.049187 0.105346 0.362576
v -4.960320 0.527600 0.392818
v -7.397219 0.105346 -0.362576
v -7.486087 0.527600 -0.392818
v -7.397219 0.105346 0.362576
v -7.486087 0.527600 0.392818
v -7.126762 2.043926 -0.336134
v -6.810211 0.105346 0.875544
v -6.223203 0.527600 1.030039
v -6.854645 0.527600 0.948571
v -7.328226 0.527600 0.728165
v -5.636195 0.105346 0.875544
v -5.118180 0.527600 0.728165
v -5.591762 0.527600 0.948571
v -6.223203 2.043926 0.736965
v -6.737568 2.043926 0.678677
v -7.044610 1.946572 0.562807
v -5.401795 1.946572 0.562807
v -5.708838 2.043926 0.678677
v -7.126762 2.043926 0.336134
v -5.319644 2.043926 0.336134
v -6.737568 2.043926 -0.678677
v -5.708838 2.043926 -0.678677
v -6.854645 0.527600 -0.948571
v -5.591762 0.527600 -0.948571
v -6.810211 0.105346 -0.875544
v -5.636195 0.105346 -0.875544
v -6.610389 -0.168409 0.265712
v -5.836018 -0.168409 0.265712
v -6.792886 2.158889 0.797122
v -7.132952 2.047094 0.661030
v -7.223938 2.158889 0.394797
v -6.223203 2.158889 0.865582
v -7.223938 2.158889 -0.394797
v -5.653520 2.158889 0.797122
v -5.313454 2.047094 0.661030
v -5.222468 2.158889 0.394797
v -5.222468 2.158889 -0.394797
v -6.223203 2.158889 -0.865582
v -6.792886 2.158889 -0.797122
v -7.132952 2.047094 -0.661030
v -5.313454 2.047094 -0.661030
v -5.653520 2.158889 -0.797122
v -6.757365 2.211775 0.644464
v -7.076227 2.160311 0.534435
v -7.161539 2.211775 0.319189
v -6.223203 2.211775 0.699814
v -7.161539 2.211775 -0.319189
v -5.689041 2.211775 0.644464
v -5.370180 2.160311 0.534435
v -5.284867 2.211775 0.319189
v -5.284867 2.211775 -0.319189
v -6.223203 2.211775 -0.699814
v -6.757365 2.211775 -0.644464
v -7.076227 2.160311 -0.534435
v -5.370180 2.160311 -0.534435
v -5.689041 2.211775 -0.644464
v -6.660446 2.214553 0.527532
v -6.921452 2.126804 0.437467
v -6.991286 2.214553 0.261275
v -6.223203 2.214553 0.572839
v -6.991286 2.214553 -0.261275
v -5.785960 2.214553 0.527532
v -5.524954 2.126804 0.437467
v -5.455120 2.214553 0.261275
v -5.455120 2.214553 -0.261275
v -6.223203 2.214553 -0.572839
v -6.660446 2.214553 -0.527532
v -6.921452 2.126804 -0.437467
v -5.524954 2.126804 -0.437467
v -5.785960 2.214553 -0.527532
v -6.660446 2.068666 0.527532
v -6.921452 1.973837 0.437467
v -6.648814 2.333206 0.292316
v -6.991286 2.042551 0.261275
v -6.223203 2.068666 0.572839
v -6.223203 2.333206 0.317422
v -6.223203 2.333206 -0.317422
v -6.648814 2.333206 -0.292316
v -6.991286 2.042551 -0.261275
v -5.785960 2.068666 0.527532
v -5.797592 2.264399 0.292316
v -5.524954 2.039956 0.437467
v -5.455120 2.108670 0.261275
v -5.455120 2.108670 -0.261275
v -5.797592 2.264399 -0.292316
v -6.164477 1.888558 -0.572839
v -6.601719 1.888558 -0.527532
v -6.862726 1.793729 -0.437467
v -5.466226 1.859848 -0.437467
v -5.727233 1.888558 -0.527532
vt 0.091555 0.172772
vt 0.061799 0.172772
vt 0.051118 0.226163
vt 0.083355 0.226163
vt 0.050801 0.172772
vt 0.039203 0.226163
vt 0.061799 0.172772
vt 0.051118 0.226163
vt 0.091554 0.172772
vt 0.083355 0.226163
vt 0.090594 0.417892
vt 0.107541 0.405583
vt 0.082068 0.417892
vt 0.090594 0.417892
vt 0.107541 0.405583
vt 0.289122 0.417892
vt 0.297647 0.417892
vt 0.340513 0.226163
vt 0.328597 0.226163
vt 0.272175 0.405583
vt 0.296360 0.226163
vt 0.289122 0.417892
vt 0.272175 0.405583
vt 0.296360 0.226163
vt 0.328597 0.226163
vt 0.328915 0.172772
vt 0.317916 0.172772
vt 0.288161 0.172772
vt 0.288161 0.172772
vt 0.317916 0.172772
vt 0.228721 0.138157
vt 0.242889 0.172772
vt 0.232059 0.138157
vt 0.228721 0.138157
vt 0.242889 0.172772
vt 0.150994 0.138157
vt 0.136827 0.172772
vt 0.147657 0.138157
vt 0.150994 0.138157
vt 0.136827 0.172772
vt 0.247312 0.226163
vt 0.132404 0.226163
vt 0.239021 0.417892
vt 0.140694 0.417892
vt 0.247312 0.226163
vt 0.132404 0.226163
vt 0.239021 0.417892
vt 0.140694 0.417892
vt 0.073270 0.432429
vt 0.093175 0.418293
vt 0.132114 0.432429
vt 0.063256 0.432429
vt 0.247601 0.432429
vt 0.073270 0.432429
vt 0.093175 0.418293
vt 0.132114 0.432429
vt 0.247601 0.432429
vt 0.306446 0.432429
vt 0.316459 0.432429
vt 0.286541 0.418293
vt 0.286541 0.418293
vt 0.306446 0.432429
vt 0.095598 0.439116
vt 0.111690 0.432609
vt 0.340828 0.770206
vt 0.402414 0.764366
vt 0.402414 0.912032
vt 0.340828 0.906192
vt 0.339144 0.715494
vt 0.402414 0.704955
vt 0.464000 0.770206
vt 0.464000 0.906192
vt 0.410912 0.971442
vt 0.347642 0.960904
vt 0.291272 0.777426
vt 0.291272 0.898972
vt 0.465683 0.715494
vt 0.301377 0.736443
vt 0.513556 0.777426
vt 0.513556 0.898972
vt 0.474181 0.960904
vt 0.309874 0.939954
vt 0.503451 0.736443
vt 0.511949 0.939954
vt 0.143173 0.439116
vt 0.087502 0.439116
vt 0.236543 0.439116
vt 0.095597 0.439116
vt 0.111690 0.432609
vt 0.143173 0.439116
vt 0.236543 0.439116
vt 0.284118 0.439116
vt 0.292214 0.439116
vt 0.268025 0.432609
vt 0.268025 0.432609
vt 0.284118 0.439116
vt 0.112700 0.439467
vt 0.125873 0.428372
vt 0.151643 0.439467
vt 0.106074 0.439467
vt 0.228072 0.439467
vt 0.112700 0.439467
vt 0.125873 0.428372
vt 0.151643 0.439467
vt 0.228072 0.439467
vt 0.267015 0.439467
vt 0.273642 0.439467
vt 0.253842 0.428372
vt 0.253842 0.428372
vt 0.267015 0.439467
vt 0.112700 0.421021
vt 0.125873 0.409030
vt 0.151643 0.417719
vt 0.106074 0.421021
vt 0.228072 0.417719
vt 0.112700 0.421021
vt 0.125873 0.417390
vt 0.151643 0.426079
vt 0.228072 0.426079
vt 0.267015 0.398247
vt 0.273642 0.398247
vt 0.253842 0.386257
vt 0.253842 0.394617
vt 0.267015 0.398247
vn -0.469638 -0.708917 0.526190
vn -0.208817 -0.667910 0.714347
vn -0.245117 0.099301 0.964395
vn -0.648782 0.107433 0.753353
vn -0.000000 -0.646845 0.762622
vn -0.000000 0.103474 0.994632
vn 0.208817 -0.667910 0.714347
vn 0.245117 0.099301 0.964395
vn 0.469638 -0.708918 0.526190
vn 0.648782 0.107433 0.753353
vn -0.224160 0.094778 0.969933
vn -0.663642 0.147851 0.733294
vn -0.000000 0.098175 0.995169
vn 0.224159 0.094778 0.969933
vn 0.663642 0.147851 0.733294
vn -0.345496 0.861008 0.373226
vn -0.172803 0.924968 0.338488
vn -0.304234 0.922389 0.237994
vn -0.342174 0.929561 0.137236
vn 0.032197 0.944654 0.326486
vn 0.062395 0.953304 0.295496
vn 0.054114 0.883101 -0.466052
vn -0.308999 0.865847 -0.393483
vn -0.275634 0.902592 -0.330687
vn 0.123809 0.958144 0.258129
vn 0.254690 0.942660 0.215698
vn 0.157677 0.942797 0.293719
vn 0.158580 0.981400 0.108198
vn 0.112191 0.950328 -0.290326
vn 0.256468 0.887541 -0.382746
vn 0.028238 0.963400 -0.266575
vn -0.125620 0.927770 -0.351372
vn -0.255442 0.766856 -0.588796
vn 0.068080 0.849134 -0.523771
vn 0.077808 0.960973 -0.265476
vn -0.224160 0.094778 -0.969933
vn -0.000000 0.098175 -0.995169
vn 0.000000 0.103474 -0.994632
vn -0.245117 0.099301 -0.964395
vn -0.663642 0.147851 -0.733294
vn -0.648782 0.107433 -0.753353
vn 0.224159 0.094778 -0.969933
vn 0.663642 0.147851 -0.733294
vn 0.648782 0.107433 -0.753353
vn 0.245117 0.099301 -0.964395
vn 0.000000 -0.646845 -0.762622
vn -0.208817 -0.667910 -0.714347
vn -0.469638 -0.708918 -0.526190
vn 0.469638 -0.708918 -0.526190
vn 0.208817 -0.667910 -0.714347
vn -0.189085 -0.970912 -0.146888
vn -0.644752 -0.753459 -0.128823
vn -0.000000 -0.966898 -0.255162
vn 0.189085 -0.970912 -0.146888
vn 0.644752 -0.753458 -0.128823
vn -0.189085 -0.970912 0.146888
vn -0.644752 -0.753459 0.128823
vn 0.000000 -0.966898 0.255162
vn 0.189085 -0.970912 0.146888
vn 0.644752 -0.753458 0.128823
vn 0.982192 0.133203 -0.132497
vn 0.982192 0.133203 0.132497
vn 0.984974 0.142970 -0.096879
vn 0.984974 0.142970 0.096879
vn -0.982192 0.133203 -0.132497
vn -0.982192 0.133203 0.132497
vn -0.984974 0.142970 -0.096879
vn -0.984974 0.142970 0.096879
vn -0.197147 0.227491 0.953614
vn -0.564262 -0.057123 0.823617
vn -0.969032 -0.200776 0.143756
vn 0.000000 0.203792 0.979014
vn -0.969032 -0.200776 -0.143756
vn 0.197148 0.227491 0.953614
vn 0.564262 -0.057123 0.823617
vn 0.969032 -0.200775 0.143757
vn 0.969032 -0.200775 -0.143757
vn -0.197147 0.227491 -0.953615
vn 0.000000 0.203792 -0.979014
vn -0.564262 -0.057123 -0.823617
vn 0.564262 -0.057123 -0.823618
vn 0.197148 0.227491 -0.953614
vn -0.141237 0.973105 0.181988
vn -0.243316 0.940679 0.236476
vn -0.284946 0.954722 0.085506
vn -0.000000 0.977083 0.212859
vn -0.284946 0.954722 -0.085506
vn 0.141237 0.973105 0.181988
vn 0.243316 0.940679 0.236475
vn 0.284946 0.954722 0.085506
vn 0.284946 0.954722 -0.085506
vn -0.141237 0.973105 -0.181988
vn -0.000000 0.977083 -0.212859
vn -0.243316 0.940679 -0.236476
vn 0.243316 0.940679 -0.236476
vn 0.141237 0.973105 -0.181988
vn 0.071469 0.737866 -0.671153
vn 0.421477 0.769624 -0.479621
vn 0.588973 0.808145 -0.003677
vn -0.000000 0.738101 -0.674690
vn 0.618510 0.784898 0.037152
vn -0.058006 0.760706 -0.646500
vn -0.319629 0.859429 -0.399023
vn -0.415658 0.909363 0.016952
vn -0.482639 0.875771 0.009235
vn 0.132771 0.487058 0.863218
vn 0.010542 0.436574 0.899607
vn 0.474726 0.582506 0.659789
vn -0.476296 0.533285 0.699106
vn -0.117171 0.443049 0.888807
s 1
g pasted__pCube3 group2
usemtl initialShadingGroup
f 1/1/1 27/2/2 29/3/3 30/4/4
f 27/2/2 2/5/5 28/6/6 29/3/3
f 2/5/5 31/7/7 33/8/8 28/6/6
f 31/7/7 3/9/9 32/10/10 33/8/8
f 30/4/4 29/3/3 35/11/11 36/12/12
f 29/3/3 28/6/6 34/13/13 35/11/11
f 28/6/6 33/8/8 38/14/14 34/13/13
f 33/8/8 32/10/10 37/15/15 38/14/14
f 92/78/16 91/69/17 93/65/18 94/75/19
f 91/69/17 95/70/20 96/66/21 93/65/18
f 93/65/18 96/66/21 97/67/22 98/68/23
f 94/75/19 93/65/18 98/68/23 99/76/24
f 95/70/20 100/77/25 101/71/26 96/66/21
f 100/77/25 102/83/27 103/79/28 101/71/26
f 101/71/26 103/79/28 104/80/29 105/72/30
f 96/66/21 101/71/26 105/72/30 97/67/22
f 98/68/23 97/67/22 106/73/31 107/74/32
f 99/76/24 98/68/23 107/74/32 108/82/33
f 105/72/30 104/80/29 109/84/34 110/81/35
f 97/67/22 105/72/30 110/81/35 106/73/31
f 41/16/36 6/17/37 9/18/38 43/19/39
f 5/20/40 41/16/36 43/19/39 8/21/41
f 42/22/42 7/23/43 10/24/44 44/25/45
f 6/17/37 42/22/42 44/25/45 9/18/38
f 43/19/39 9/18/38 12/26/46 45/27/47
f 8/21/41 43/19/39 45/27/47 11/28/48
f 44/25/45 10/24/44 13/29/49 46/30/50
f 9/18/38 44/25/45 46/30/50 12/26/46
f 11/28/48 45/27/47 15/31/51 22/32/52
f 45/27/47 12/26/46 14/33/53 15/31/51
f 12/26/46 46/30/50 16/34/54 14/33/53
f 46/30/50 13/29/49 18/35/55 16/34/54
f 22/32/52 15/31/51 47/36/56 24/37/57
f 15/31/51 14/33/53 17/38/58 47/36/56
f 47/36/56 17/38/58 2/5/5 27/2/2
f 24/37/57 47/36/56 27/2/2 1/1/1
f 14/33/53 16/34/54 48/39/59 17/38/58
f 16/34/54 18/35/55 20/40/60 48/39/59
f 48/39/59 20/40/60 3/9/9 31/7/7
f 17/38/58 48/39/59 31/7/7 2/5/5
f 18/35/55 13/29/49 10/24/44 19/41/61
f 3/9/9 20/40/60 21/42/62 32/10/10
f 20/40/60 18/35/55 19/41/61 21/42/62
f 19/41/61 10/24/44 7/23/43 4/43/63
f 32/10/10 21/42/62 40/44/64 37/15/15
f 21/42/62 19/41/61 4/43/63 40/44/64
f 11/28/48 22/32/52 23/45/65 8/21/41
f 22/32/52 24/37/57 25/46/66 23/45/65
f 24/37/57 1/1/1 30/4/4 25/46/66
f 8/21/41 23/45/65 26/47/67 5/20/40
f 23/45/65 25/46/66 39/48/68 26/47/67
f 25/46/66 30/4/4 36/12/12 39/48/68
f 36/12/12 35/11/11 49/49/69 50/50/70
f 39/48/68 36/12/12 50/50/70 51/51/71
f 35/11/11 34/13/13 52/52/72 49/49/69
f 26/47/67 39/48/68 51/51/71 53/53/73
f 34/13/13 38/14/14 54/54/74 52/52/72
f 38/14/14 37/15/15 55/55/75 54/54/74
f 37/15/15 40/44/64 56/56/76 55/55/75
f 40/44/64 4/43/63 57/57/77 56/56/76
f 6/17/37 41/16/36 59/58/78 58/59/79
f 41/16/36 5/20/40 60/60/80 59/58/78
f 5/20/40 26/47/67 53/53/73 60/60/80
f 4/43/63 7/23/43 61/61/81 57/57/77
f 7/23/43 42/22/42 62/62/82 61/61/81
f 42/22/42 6/17/37 58/59/79 62/62/82
f 50/50/70 49/49/69 63/63/83 64/64/84
f 51/51/71 50/50/70 64/64/84 65/85/85
f 49/49/69 52/52/72 66/86/86 63/63/83
f 53/53/73 51/51/71 65/85/85 67/87/87
f 52/52/72 54/54/74 68/88/88 66/86/86
f 54/54/74 55/55/75 69/89/89 68/88/88
f 55/55/75 56/56/76 70/90/90 69/89/89
f 56/56/76 57/57/77 71/91/91 70/90/90
f 58/59/79 59/58/78 73/92/92 72/93/93
f 59/58/78 60/60/80 74/94/94 73/92/92
f 60/60/80 53/53/73 67/87/87 74/94/94
f 57/57/77 61/61/81 75/95/95 71/91/91
f 61/61/81 62/62/82 76/96/96 75/95/95
f 62/62/82 58/59/79 72/93/93 76/96/96
f 64/64/84 63/63/83 77/97/97 78/98/98
f 65/85/85 64/64/84 78/98/98 79/99/99
f 63/63/83 66/86/86 80/100/100 77/97/97
f 67/87/87 65/85/85 79/99/99 81/101/101
f 66/86/86 68/88/88 82/102/102 80/100/100
f 68/88/88 69/89/89 83/103/103 82/102/102
f 69/89/89 70/90/90 84/104/104 83/103/103
f 70/90/90 71/91/91 85/105/105 84/104/104
f 72/93/93 73/92/92 87/106/106 86/107/107
f 73/92/92 74/94/94 88/108/108 87/106/106
f 74/94/94 67/87/87 81/101/101 88/108/108
f 71/91/91 75/95/95 89/109/109 85/105/105
f 75/95/95 76/96/96 90/110/110 89/109/109
f 76/96/96 72/93/93 86/107/107 90/110/110
f 78/98/98 77/97/97 91/111/17 92/112/16
f 79/99/99 78/98/98 92/112/16 94/113/19
f 77/97/97 80/100/100 95/114/20 91/111/17
f 81/101/101 79/99/99 94/113/19 99/115/24
f 80/100/100 82/102/102 100/116/25 95/114/20
f 82/102/102 83/103/103 102/117/27 100/116/25
f 83/103/103 84/104/104 103/118/28 102/117/27
f 84/104/104 85/105/105 104/119/29 103/118/28
f 86/107/107 87/106/106 107/120/32 106/121/31
f 87/106/106 88/108/108 108/122/33 107/120/32
f 88/108/108 81/101/101 99/115/24 108/122/33
f 85/105/105 89/109/109 109/123/34 104/119/29
f 89/109/109 90/110/110 110/124/35 109/123/34
f 90/110/110 86/107/107 106/121/31 110/124/35
