# This file uses centimeters as units for non-parametric coordinates.

mtllib flag.mtl
g default
v 11.292726 13.592891 -0.160320
v 6.996756 13.633865 -0.111491
v 11.317553 16.123426 -0.099527
v 7.021583 16.164400 -0.050698
v 11.337424 16.119385 0.060551
v 7.041455 16.160360 0.109380
v 11.312597 13.588850 -0.000242
v 7.016628 13.629825 0.048587
v 10.299759 13.601690 -0.121072
v 10.319631 13.597650 0.039005
v 10.344458 16.128185 0.099798
v 10.324585 16.132225 -0.060279
v 8.738290 13.619446 -0.222484
v 8.763117 16.149981 -0.161691
v 8.782557 16.146029 -0.005094
v 8.757730 13.615493 -0.065887
v 7.650837 13.630501 -0.238565
v 7.675664 16.161036 -0.177772
v 7.695216 16.157061 -0.020272
v 7.670389 13.626525 -0.081065
v 7.146636 -0.195173 -0.068255
v 7.102985 -0.195173 -0.122991
v 7.039908 -0.195173 -0.153367
v 6.969898 -0.195173 -0.153367
v 6.906821 -0.195173 -0.122991
v 6.863171 -0.195173 -0.068255
v 6.847592 -0.195173 -0.000000
v 6.863171 -0.195173 0.068255
v 6.906821 -0.195173 0.122991
v 6.969898 -0.195173 0.153367
v 7.039908 -0.195173 0.153367
v 7.102985 -0.195173 0.122991
v 7.146636 -0.195173 0.068255
v 7.162215 -0.195173 0.000000
v 7.146636 16.808214 -0.068255
v 7.102985 16.808214 -0.122991
v 7.039908 16.808214 -0.153367
v 6.969898 16.808214 -0.153367
v 6.906821 16.808214 -0.122991
v 6.863171 16.808214 -0.068255
v 6.847592 16.808214 -0.000000
v 6.863171 16.808214 0.068255
v 6.906821 16.808214 0.122991
v 6.969898 16.808214 0.153367
v 7.039908 16.808214 0.153367
v 7.102985 16.808214 0.122991
v 7.146636 16.808214 0.068255
v 7.162215 16.808214 0.000000
v 7.004903 -0.195173 0.000000
v 7.004903 16.808214 0.000000
vt 0.738923 0.966643
vt 0.738923 0.558402
vt 0.487219 0.558402
vt 0.487219 0.966643
vt 0.001992 2.651781
vt 0.213424 2.651781
vt 0.877370 0.966643
vt 0.622657 0.966643
vt 0.001992 2.863213
vt 0.213424 2.863213
vt 0.877370 0.558402
vt 0.622657 0.558402
vt 0.397364 0.558402
vt 0.535812 0.558402
vt 0.535812 0.966643
vt 0.397364 0.966643
vt 0.949077 0.558402
vt 0.810629 0.558402
vt 0.949077 0.966643
vt 0.810629 0.966643
vt 0.358384 0.558402
vt 0.358384 0.966643
vt 0.494602 0.966643
vt 0.494602 0.558402
vt 0.048945 0.036735
vt 0.054663 0.036735
vt 0.054663 0.739997
vt 0.048945 0.739997
vt 0.057837 0.036735
vt 0.057837 0.739997
vt 0.057837 0.036735
vt 0.057837 0.739997
vt 0.054663 0.036735
vt 0.054663 0.739997
vt 0.048945 0.036735
vt 0.048945 0.739997
vt 0.041813 0.036735
vt 0.041813 0.739997
vt 0.034682 0.036735
vt 0.034682 0.739997
vt 0.028963 0.036735
vt 0.028963 0.739997
vt 0.025789 0.036735
vt 0.025789 0.739997
vt 0.025789 0.036735
vt 0.025789 0.739997
vt 0.028963 0.036735
vt 0.028963 0.739997
vt 0.034682 0.036735
vt 0.034682 0.739997
vt 0.041813 0.036735
vt 0.041813 0.739997
vt 0.041813 0.036735
vt 0.041813 0.739997
vn 0.024569 0.023769 -0.999416
vn 0.024569 0.023769 -0.999416
vn 0.044555 0.023556 -0.998729
vn 0.044555 0.023556 -0.998729
vn 0.009808 0.999664 0.024010
vn 0.009808 0.999664 0.024008
vn 0.009808 0.999664 0.024007
vn 0.009808 0.999664 0.024005
vn -0.025926 -0.023755 0.999382
vn -0.025926 -0.023755 0.999382
vn -0.045520 -0.023546 0.998686
vn -0.045520 -0.023546 0.998686
vn -0.009808 -0.999664 -0.024014
vn -0.009808 -0.999664 -0.024014
vn -0.009807 -0.999664 -0.024015
vn -0.009807 -0.999663 -0.024015
vn -0.992339 0.006772 0.123358
vn -0.992339 0.006772 0.123358
vn -0.992339 0.006772 0.123358
vn -0.992339 0.006772 0.123358
vn 0.992339 -0.006772 -0.123358
vn 0.992339 -0.006772 -0.123358
vn 0.992339 -0.006772 -0.123358
vn 0.992339 -0.006772 -0.123358
vn -0.009808 -0.999664 -0.024011
vn -0.009808 -0.999664 -0.024011
vn 0.039267 -0.024383 0.998931
vn 0.039267 -0.024383 0.998931
vn 0.009808 0.999663 0.024022
vn 0.009808 0.999663 0.024022
vn -0.039267 0.024383 -0.998931
vn -0.039267 0.024383 -0.998931
vn -0.063382 0.024590 -0.997686
vn -0.063382 0.024590 -0.997686
vn 0.009807 0.999664 0.024013
vn 0.009807 0.999664 0.024013
vn 0.065385 -0.024607 0.997557
vn 0.065385 -0.024607 0.997557
vn -0.009808 -0.999664 -0.024013
vn -0.009808 -0.999664 -0.024013
vn -0.190526 0.025445 -0.981352
vn -0.190526 0.025445 -0.981352
vn 0.009807 0.999664 0.024012
vn 0.009807 0.999664 0.024012
vn 0.194342 -0.025464 0.980603
vn 0.194342 -0.025464 0.980603
vn -0.009808 -0.999664 -0.024012
vn -0.009808 -0.999664 -0.024012
vn 0.900969 0.000000 -0.433884
vn 0.623490 0.000000 -0.781831
vn 0.623490 0.000000 -0.781831
vn 0.900969 0.000000 -0.433884
vn 0.222521 0.000000 -0.974928
vn 0.222521 0.000000 -0.974928
vn -0.222521 0.000000 -0.974928
vn -0.222521 0.000000 -0.974928
vn -0.623490 0.000000 -0.781832
vn -0.623490 0.000000 -0.781832
vn -0.900969 0.000000 -0.433884
vn -0.900969 0.000000 -0.433884
vn -1.000000 0.000000 0.000000
vn -1.000000 0.000000 0.000000
vn -0.900969 0.000000 0.433884
vn -0.900969 0.000000 0.433884
vn -0.623490 0.000000 0.781831
vn -0.623490 0.000000 0.781831
vn -0.222521 0.000000 0.974928
vn -0.222521 0.000000 0.974928
vn 0.222521 0.000000 0.974928
vn 0.222521 0.000000 0.974928
vn 0.623490 0.000000 0.781832
vn 0.623490 0.000000 0.781832
vn 0.900969 0.000000 0.433884
vn 0.900969 0.000000 0.433884
vn 1.000000 0.000000 0.000000
vn 1.000000 0.000000 0.000000
vn 0.000000 -1.000000 0.000000
vn 0.000000 -1.000000 -0.000000
vn 0.000000 -1.000000 0.000000
vn 0.000000 -1.000000 0.000000
vn 0.000000 -1.000000 0.000000
vn 0.000000 -1.000000 0.000000
vn 0.000000 -1.000000 -0.000000
vn 0.000000 -1.000000 -0.000000
vn 0.000000 -1.000000 0.000000
vn 0.000000 -1.000000 -0.000000
vn 0.000000 -1.000000 -0.000000
vn 0.000000 -1.000000 0.000000
vn 0.000000 -1.000000 0.000000
vn 0.000000 -1.000000 0.000000
vn 0.000000 -1.000000 0.000000
vn 0.000000 1.000000 0.000000
vn 0.000000 1.000000 0.000000
vn 0.000000 1.000000 0.000000
vn 0.000000 1.000000 0.000000
vn 0.000000 1.000000 0.000000
vn 0.000000 1.000000 0.000000
vn 0.000000 1.000000 0.000000
vn 0.000000 1.000000 0.000000
vn 0.000000 1.000000 0.000000
vn 0.000000 1.000000 0.000000
vn 0.000000 1.000000 0.000000
vn 0.000000 1.000000 0.000000
vn 0.000000 1.000000 0.000000
vn 0.000000 1.000000 0.000000
vn 0.000000 1.000000 0.000000
s 1
g pCube15
usemtl lambert5SG
f 12/1/1 9/2/2 13/3/3 14/4/4
s 2
f 11/7/5 12/1/6 14/4/7 15/8/8
s 3
f 10/11/9 11/7/10 15/8/11 16/12/12
s 4
f 9/2/13 10/11/14 16/12/15 13/3/16
s off
f 2/13/17 8/14/18 6/15/19 4/16/20
f 7/9/21 1/5/22 3/6/23 5/10/24
s 4
f 7/17/25 10/11/14 9/2/13 1/18/26
s 3
f 5/19/27 11/7/10 10/11/9 7/17/28
s 2
f 3/20/29 12/1/6 11/7/5 5/19/30
s 1
f 1/18/31 9/2/2 12/1/1 3/20/32
f 14/4/4 13/3/3 17/21/33 18/22/34
s 2
f 15/8/8 14/4/7 18/22/35 19/23/36
s 3
f 16/12/12 15/8/11 19/23/37 20/24/38
s 4
f 13/3/16 16/12/15 20/24/39 17/21/40
s 1
f 18/22/34 17/21/33 2/13/41 4/16/42
s 2
f 19/23/36 18/22/35 4/16/43 6/15/44
s 3
f 20/24/38 19/23/37 6/15/45 8/14/46
s 4
f 17/21/40 20/24/39 8/14/47 2/13/48
s 5
f 21/25/49 22/26/50 36/27/51 35/28/52
f 22/26/50 23/29/53 37/30/54 36/27/51
f 23/29/53 24/31/55 38/32/56 37/30/54
f 24/31/55 25/33/57 39/34/58 38/32/56
f 25/33/57 26/35/59 40/36/60 39/34/58
f 26/35/59 27/37/61 41/38/62 40/36/60
f 27/37/61 28/39/63 42/40/64 41/38/62
f 28/39/63 29/41/65 43/42/66 42/40/64
f 29/41/65 30/43/67 44/44/68 43/42/66
f 30/43/67 31/45/69 45/46/70 44/44/68
f 31/45/69 32/47/71 46/48/72 45/46/70
f 32/47/71 33/49/73 47/50/74 46/48/72
f 33/49/73 34/51/75 48/52/76 47/50/74
f 34/51/75 21/25/49 35/28/52 48/52/76
s 6
f 22/26/77 21/25/78 49/53/79
f 23/29/80 22/26/77 49/53/79
f 24/31/81 23/29/80 49/53/79
f 25/33/82 24/31/81 49/53/79
f 26/35/83 25/33/82 49/53/79
f 27/37/84 26/35/83 49/53/79
f 28/39/85 27/37/84 49/53/79
f 29/41/86 28/39/85 49/53/79
f 30/43/87 29/41/86 49/53/79
f 31/45/88 30/43/87 49/53/79
f 32/47/89 31/45/88 49/53/79
f 33/49/90 32/47/89 49/53/79
f 34/51/91 33/49/90 49/53/79
f 21/25/78 34/51/91 49/53/79
s 7
f 35/28/92 36/27/93 50/54/94
f 36/27/93 37/30/95 50/54/94
f 37/30/95 38/32/96 50/54/94
f 38/32/96 39/34/97 50/54/94
f 39/34/97 40/36/98 50/54/94
f 40/36/98 41/38/99 50/54/94
f 41/38/99 42/40/100 50/54/94
f 42/40/100 43/42/101 50/54/94
f 43/42/101 44/44/102 50/54/94
f 44/44/102 45/46/103 50/54/94
f 45/46/103 46/48/104 50/54/94
f 46/48/104 47/50/105 50/54/94
f 47/50/105 48/52/106 50/54/94
f 48/52/106 35/28/92 50/54/94
